<svg xmlns="http://www.w3.org/2000/svg" width="1200" height="700" viewBox="0 0 1200 700"><defs><radialGradient id="bg"><stop stop-color="#53656f"/><stop offset="1" stop-color="#152831"/></radialGradient><radialGradient id="orb"><stop stop-color="#d7e3cb"/><stop offset=".6" stop-color="#83a49f"/><stop offset="1" stop-color="#37616d"/></radialGradient></defs><rect width="1200" height="700" fill="url(#bg)"/><g fill="#d4e4db" opacity=".65"><circle cx="195" cy="134" r="2"/><circle cx="955" cy="95" r="2"/><circle cx="1100" cy="380" r="3"/><circle cx="335" cy="500" r="2"/><circle cx="520" cy="115" r="1"/><circle cx="85" cy="610" r="2"/></g><ellipse cx="620" cy="365" rx="455" ry="124" fill="none" stroke="#adc4bb" stroke-width="5" opacity=".44" transform="rotate(-16 620 365)"/><circle cx="610" cy="347" r="215" fill="url(#orb)"/><path d="M486 170c-96 105-91 269 6 354 70 62 182 80 274 16-101 12-183-29-215-105-49-114-22-197 45-283-39 0-76 7-110 18Z" fill="#193a45" opacity=".33"/><ellipse cx="620" cy="365" rx="455" ry="124" fill="none" stroke="#dde6d5" stroke-width="7" opacity=".65" stroke-dasharray="800 2100" transform="rotate(-16 620 365)"/></svg>
